<svg version="1.0" xmlns="http://www.w3.org/2000/svg" width="933.333" height="933.333" viewBox="0 0 700 700"><path d="M289.5.7c-6.2 1.5-14.4 4.8-18.9 7.7-2.8 1.8-11.2 9.3-18.7 16.7-17.7 17.4-19.9 18.7-47.9 26-25.1 6.6-39.9 22.6-45.6 49.5-.8 4.2-5.6 19.5-6.9 22.4-3.6 8.1-4.6 9.2-23.5 28.9-13.2 13.7-18.3 25.3-18.3 41.6 0 8.5.6 12.3 4.1 25.6 2.2 8.6 4.3 18.2 4.6 21.5.7 7-1 17.1-6.4 37.3-2.9 11.1-3.3 21.7-1 30.7 3.5 13.5 7.4 19.4 25.3 37.7 12.3 12.6 17.5 22.2 21.2 39.2 4.2 19.8 10.8 32.1 21.9 41.1 7.7 6.2 13.6 8.9 30.1 13.4 21.6 6 25.2 8 41.1 23.1 14.5 13.8 26.8 18.7 43.9 17.6 9.5-.6 15.2-2.4 26-8.2 15.2-8.2 26.3-9.8 43.4-6.1 1.3.3 5.1 1.9 8.5 3.7 3.3 1.7 8.2 4.1 10.7 5.4 7.2 3.7 16.3 5.6 24.8 5.4 9.2-.3 14.8-1.7 23.2-5.8 6.6-3.2 7.3-3.8 21.8-17.3 10.1-9.6 15.6-12.4 33.1-17.2 17.6-4.9 23-7 29.9-12.1 12-8.9 17.9-18.9 23.7-40.5 6.6-24.8 8.1-27.5 24.9-44.8 12.1-12.5 17.8-20.4 20.4-28.6 4.8-14.6 4.6-21.3-1.4-45.4-5.7-22.8-5.7-26.8.5-50.7 6.2-24 5.6-36-2.6-51.5-2.7-5-5.7-8.5-22.2-25.9-3.4-3.6-7.8-8.9-9.6-11.6-2.9-4.4-8.3-19.3-10.2-28-3.7-17.5-10.6-30-21.3-38.8-6.8-5.5-13.4-8.4-30.5-13.2-22.4-6.3-24.4-7.5-42.6-25-17.1-16.5-23.3-20.6-34.7-23-9.9-2.1-20.9-1.3-33.8 2.4-16.4 4.6-22.5 5.8-28 5.6-5-.2-13.5-1.4-14.5-2-.3-.2-5.9-1.8-12.5-3.5C310 .9 295.3-.6 289.5.7zm77 109.8c2.8.3 6.8 1.1 9 1.7 2.2.5 5 1.2 6.2 1.4 4.1.8 16.7 5.6 23.8 9.2 17.4 8.7 32.8 21.7 44.9 37.7 4.5 6 12.6 18.8 12.6 20 0 .2 1.3 3.2 2.9 6.7 12.5 27.1 14.6 63 5.5 91.9-5.6 17.9-13.7 33.1-24.5 45.9-15.8 18.8-33.9 31.5-55.8 39.4-6.4 2.3-9.8 3.2-18.6 5.2-10.5 2.3-34.3 2.4-46.5 0-47.1-8.9-85.8-43.8-99.6-89.8-1.3-4.6-2.7-9.4-2.9-10.8-6.4-32.6-2.7-60.8 11.8-89.4 19.4-38.3 57.1-64.8 98.7-69.3 3-.3 5.6-.7 5.8-.8.5-.4 21.8.3 26.7 1zM149.1 465.7c-.7 2.1-1.9 5.1-2.7 6.8-1.9 4.4-5.4 13-12.8 31.5-3.7 9.1-7.1 17.4-7.6 18.5-.5 1.1-9.3 22.7-19.5 48-16.4 40.4-18.7 46.6-18.6 51.3.2 8.9 3.7 14.8 11.6 19.2 4.6 2.6 7.7 2.7 35 1.7 9.9-.4 24.6-1 32.7-1.3l14.7-.5 6.4 6.8c12 12.7 15.9 16.8 27 28.7 14.8 15.8 18.6 19.5 22.2 21.3 4.3 2.3 12.9 2.5 17.4.5 8.2-3.7 10.1-6.3 17-23.7 2.9-7.2 5.9-14.3 6.7-15.9.8-1.6 1.4-3.3 1.4-3.8 0-.4.8-2.7 1.9-5.1 2.3-5.4 2.1-4.9 15.8-38.6 6.3-15.7 12.1-30 12.8-31.6.8-1.7 3.2-7.7 5.5-13.5s4.7-11.9 5.4-13.5c.8-1.7 4.1-9.8 7.4-18 3.3-8.3 6.8-16.7 7.7-18.8l1.6-3.9-3.8 2c-12.9 6.9-29.9 11-45.1 10.9-26.3-.1-49.5-10-70.2-29.8-4.7-4.5-9.6-8.6-11-9.1-1.4-.6-8.3-2.6-15.5-4.4-7.1-1.9-16.3-5-20.3-6.9-7.3-3.5-18.4-10.3-19-11.7-.9-2-2.9-.5-4.1 2.9zm390.9.4c-8.4 5.9-20.4 11.4-31.5 14.4-21.8 5.8-20.2 5-30 14.5-14.9 14.4-30.7 23.3-49 27.6-11.6 2.7-33.2 2.5-43.5-.3-9.6-2.7-15.3-4.8-21.4-7.9-2.8-1.4-4.6-1.9-4.3-1.2.3.7 2.8 7.1 5.6 14.3 2.9 7.1 5.8 14.3 6.6 16 .7 1.6 6.5 15.8 12.8 31.5 10.6 26.2 33.8 83.4 36.7 90.5 2.3 5.5 3.7 9 6.1 15 5.5 14 12.6 19.7 23.8 19.1 7.5-.5 10.4-2.2 18.6-10.8 17.4-18.3 36.2-38.3 40.4-42.9l4.6-5.1 15.5.6c59.5 2.4 58.9 2.4 63.2 1.3 2.1-.5 5.8-2.7 8.2-4.8 5.7-5 8.1-11 7.3-18.2-.4-4.2-5.9-19.1-13.6-37.2-.5-1.1-1.6-3.6-2.4-5.5-.8-1.9-6.7-16.6-13.1-32.5-6.4-16-12.1-29.9-12.6-31-.5-1.1-5.4-13-10.8-26.4-5.4-13.5-10.3-24.6-10.8-24.7-.5-.1-3.4 1.6-6.4 3.7z"/></svg>