<svg width="49" height="48" fill="none" xmlns="http://www.w3.org/2000/svg"><g clip-path="url(#clip0)"><g clip-path="url(#clip1)" fill="#00A0C1"><path d="M24.84 22.802c4.305 0 7.652-3.495 7.652-7.785s-3.507-7.626-7.81-7.626c-4.305 0-7.653 3.495-7.653 7.626 0 4.29 3.507 7.785 7.812 7.785zm-.159-12.233c.16 0 .16 0 0 0 2.55 0 4.623 2.065 4.623 4.607 0 2.542-2.072 4.449-4.623 4.449a4.448 4.448 0 01-4.463-4.449c0-2.542 2.072-4.607 4.463-4.607zm23.753 11.28c-3.03-2.701-7.015-4.131-11.16-3.972H36c-.319 1.27-.797 2.383-1.434 3.336.956-.159 1.753-.159 2.71-.159 3.028-.159 6.057.795 8.449 2.542v11.44h3.188v-12.71l-.478-.477zM33.609 7.708c.797-1.906 3.029-2.86 5.101-2.065 1.913.794 2.87 3.019 2.072 5.084-.637 1.43-2.072 2.383-3.507 2.383-.319 0-.797 0-1.116-.159.16.795.16 1.59.16 2.225v.953c.319 0 .637.159.956.159 3.986 0 7.174-3.178 7.174-6.99 0-3.973-3.188-7.15-7.014-7.15-2.55 0-4.783 1.27-6.058 3.495.797.476 1.594 1.112 2.232 2.065zM15.435 21.372c-.638-.953-1.116-2.065-1.434-3.336h-1.276a16.438 16.438 0 00-11.159 3.813l-.478.477v12.71h3.188v-11.44c2.55-1.747 5.42-2.7 8.45-2.541.956 0 1.912.159 2.71.317zm-2.71-5.242c.319 0 .637 0 .956-.16v-.953c0-.794 0-1.588.16-2.224-.32.159-.797.159-1.116.159-2.073 0-3.826-1.748-3.826-3.813 0-2.066 1.753-3.813 3.826-3.813 1.594 0 3.029.953 3.666 2.383.638-.795 1.594-1.589 2.391-2.224-2.072-3.337-6.376-4.45-9.724-2.384-3.348 2.066-4.464 6.356-2.391 9.692 1.275 2.066 3.507 3.337 6.058 3.337zm25.188 15.252l-.319-.477c-3.188-3.495-7.652-5.56-12.434-5.402-4.783-.159-9.406 1.907-12.594 5.402l-.319.477v12.075c0 1.43 1.116 2.7 2.71 2.7h20.405c1.435 0 2.71-1.27 2.71-2.7V31.382h-.16zM34.725 42.98h-19.29V32.494c2.551-2.542 6.058-3.813 9.725-3.813 3.507-.16 7.014 1.27 9.564 3.813V42.98z"/></g></g><defs><clipPath id="clip0"><path fill="#fff" transform="translate(.5)" d="M0 0h48v48H0z"/></clipPath><clipPath id="clip1"><path fill="#fff" transform="translate(1 2)" d="M0 0h48v44.211H0z"/></clipPath></defs></svg>