<svg width="111" height="22" fill="none" xmlns="http://www.w3.org/2000/svg"><g clip-path="url(#clip0)" fill="#F3CD03"><path d="M20.631 8.413a.918.918 0 00-.796-.62l-5.23-.416-2.262-5.009a.915.915 0 00-1.671 0L8.409 7.376l-5.23.416a.917.917 0 00-.567 1.57l3.864 3.768-1.366 5.918a.917.917 0 001.403.97l4.994-3.33 4.995 3.33a.917.917 0 001.391-1.015l-1.678-5.87 4.161-3.745a.919.919 0 00.255-.976zm22.014 0a.917.917 0 00-.796-.62l-5.23-.416-2.262-5.009a.916.916 0 00-1.672 0l-2.262 5.009-5.23.416a.917.917 0 00-.567 1.57l3.864 3.768-1.367 5.918a.917.917 0 001.404.97l4.994-3.33 4.994 3.33a.917.917 0 001.392-1.015l-1.678-5.87 4.16-3.745a.919.919 0 00.256-.976zm22.011 0a.918.918 0 00-.797-.62l-5.229-.416-2.263-5.009a.914.914 0 00-1.67 0l-2.264 5.009-5.229.416a.917.917 0 00-.568 1.57l3.865 3.768-1.367 5.918a.917.917 0 001.403.97l4.995-3.33 4.994 3.33a.917.917 0 001.391-1.015l-1.677-5.87 4.16-3.745a.919.919 0 00.255-.976zm22.016 0a.918.918 0 00-.796-.62l-5.23-.416-2.262-5.009a.914.914 0 00-1.671 0L74.45 7.376l-5.23.416a.917.917 0 00-.567 1.57l3.864 3.768-1.366 5.918a.917.917 0 001.403.97l4.994-3.33 4.995 3.33a.917.917 0 001.391-1.015l-1.677-5.87 4.16-3.745a.919.919 0 00.255-.976zm7.86 4.717l-1.367 5.919a.915.915 0 001.403.97l4.994-3.33 4.994 3.33a.92.92 0 001.376-.466.92.92 0 00.016-.55l-1.678-5.87 4.161-3.744a.916.916 0 00-.051-1.405.915.915 0 00-.49-.19l-5.23-.417-2.262-5.009a.924.924 0 00-.836-.542.915.915 0 00-.836.542l-2.262 5.009-5.23.416a.917.917 0 00-.567 1.57l3.865 3.768zm2.617-3.967a.915.915 0 00.763-.538l1.65-3.651 1.65 3.651a.915.915 0 00.763.538l3.644.289-3.001 2.7a.921.921 0 00-.269.934l1.15 4.022-3.427-2.285a.913.913 0 00-1.017 0l-3.581 2.388.963-4.17a.917.917 0 00-.253-.862l-2.787-2.717 3.752-.3z"/></g><defs><clipPath id="clip0"><path fill="#fff" transform="translate(.5)" d="M0 0h110.068v22H0z"/></clipPath></defs></svg>